<svg width="35" height="35" viewBox="0 0 35 35" fill="none" xmlns="http://www.w3.org/2000/svg">
<path d="M19.9376 34.5624H22.3751V32.1249C22.3751 31.8017 22.5035 31.4917 22.732 31.2631C22.9606 31.0346 23.2706 30.9062 23.5938 30.9062H30.9063C31.2295 30.9062 31.5395 31.0346 31.7681 31.2631C31.9967 31.4917 32.1251 31.8017 32.1251 32.1249V34.5624H34.5626V32.1249C34.5616 31.1555 34.1761 30.2261 33.4906 29.5406C32.8051 28.8551 31.8757 28.4696 30.9063 28.4687H23.5938C22.6244 28.4696 21.695 28.8551 21.0095 29.5406C20.3241 30.2261 19.9385 31.1555 19.9376 32.1249V34.5624ZM27.2501 27.2499C26.2859 27.2499 25.3433 26.964 24.5417 26.4283C23.74 25.8926 23.1151 25.1313 22.7462 24.2405C22.3772 23.3497 22.2806 22.3695 22.4687 21.4238C22.6568 20.4782 23.1211 19.6095 23.8029 18.9278C24.4847 18.246 25.3533 17.7817 26.299 17.5936C27.2447 17.4055 28.2249 17.502 29.1156 17.871C30.0064 18.24 30.7678 18.8648 31.3035 19.6665C31.8392 20.4682 32.1251 21.4107 32.1251 22.3749C32.1238 23.6674 31.6097 24.9067 30.6958 25.8206C29.7818 26.7346 28.5426 27.2486 27.2501 27.2499ZM27.2501 19.9374C26.768 19.9374 26.2967 20.0804 25.8959 20.3482C25.495 20.616 25.1826 20.9967 24.9981 21.4421C24.8136 21.8875 24.7653 22.3776 24.8594 22.8504C24.9535 23.3233 25.1856 23.7576 25.5265 24.0985C25.8674 24.4394 26.3017 24.6715 26.7745 24.7656C27.2474 24.8596 27.7375 24.8113 28.1829 24.6269C28.6283 24.4424 29.0089 24.1299 29.2768 23.7291C29.5446 23.3283 29.6876 22.857 29.6876 22.3749C29.6869 21.7286 29.4299 21.109 28.9729 20.652C28.5159 20.1951 27.8963 19.938 27.2501 19.9374ZM28.8856 10.2605L2.07313 0.510526C1.85519 0.431197 1.61915 0.415696 1.39272 0.465845C1.16628 0.515994 0.958857 0.62971 0.7948 0.79364C0.630743 0.957569 0.516865 1.1649 0.46654 1.3913C0.416214 1.6177 0.43153 1.85375 0.510689 2.07174L10.2607 28.8842C10.345 29.1164 10.4979 29.3174 10.6989 29.4608C10.9 29.6042 11.1399 29.6833 11.3868 29.6874H11.4063C11.6501 29.6875 11.8882 29.6145 12.0901 29.4778C12.2919 29.3412 12.4481 29.1472 12.5385 28.9208L17.2198 17.2184L28.9222 12.5384C29.1521 12.447 29.3487 12.2879 29.486 12.0821C29.6233 11.8763 29.6947 11.6336 29.6907 11.3862C29.6867 11.1389 29.6076 10.8986 29.4638 10.6973C29.32 10.496 29.1183 10.3432 28.8856 10.2593V10.2605ZM15.8279 15.1477L15.3429 15.3427L15.1491 15.8278L11.4599 25.0513L3.69406 3.6939L25.0514 11.4598L15.8279 15.1477Z" fill="#393962"/>
</svg>
