<svg width="32" height="29" viewBox="0 0 32 29" fill="none" xmlns="http://www.w3.org/2000/svg">
<path fill-rule="evenodd" clip-rule="evenodd" d="M16 27.1386C19.713 27.1386 23.274 25.8438 25.8995 23.5389C28.525 21.2339 30 18.1078 30 14.8482C30 11.5886 28.525 8.46246 25.8995 6.15756C23.274 3.85266 19.713 2.55778 16 2.55778C12.287 2.55778 8.72601 3.85266 6.1005 6.15756C3.475 8.46246 2 11.5886 2 14.8482C2 18.1078 3.475 21.2339 6.1005 23.5389C8.72601 25.8438 12.287 27.1386 16 27.1386ZM16 0.802C20.2435 0.802 24.3131 2.28186 27.3137 4.91604C30.3143 7.55021 32 11.1229 32 14.8482C32 18.5735 30.3143 22.1462 27.3137 24.7804C24.3131 27.4145 20.2435 28.8944 16 28.8944C11.7565 28.8944 7.68687 27.4145 4.68629 24.7804C1.68571 22.1462 0 18.5735 0 14.8482C0 11.1229 1.68571 7.55021 4.68629 4.91604C7.68687 2.28186 11.7565 0.802 16 0.802ZM9 13.9703C8.73478 13.9703 8.48043 14.0628 8.29289 14.2274C8.10536 14.3921 8 14.6154 8 14.8482C8 15.081 8.10536 15.3043 8.29289 15.469C8.48043 15.6336 8.73478 15.7261 9 15.7261L20.586 15.7261L16.292 19.494C16.1042 19.6588 15.9987 19.8824 15.9987 20.1155C15.9987 20.3487 16.1042 20.5722 16.292 20.7371C16.4798 20.9019 16.7344 20.9945 17 20.9945C17.2656 20.9945 17.5202 20.9019 17.708 20.7371L23.708 15.4697C23.8011 15.3882 23.875 15.2913 23.9254 15.1847C23.9758 15.078 24.0018 14.9637 24.0018 14.8482C24.0018 14.7327 23.9758 14.6184 23.9254 14.5117C23.875 14.4051 23.8011 14.3082 23.708 14.2267L17.708 8.95933C17.5202 8.79449 17.2656 8.70188 17 8.70188C16.7344 8.70188 16.4798 8.79449 16.292 8.95933C16.1042 9.12418 15.9987 9.34775 15.9987 9.58088C15.9987 9.814 16.1042 10.0376 16.292 10.2024L20.586 13.9703L9 13.9703Z" fill="white"/>
</svg>
