<svg width="152" height="120" viewBox="0 0 152 120" fill="none" xmlns="http://www.w3.org/2000/svg">
<path d="M49.9 55.9339C55.7333 58.5005 60.2833 62.3505 63.55 67.4839C66.8167 72.6172 68.45 78.6839 68.45 85.6839C68.45 95.7172 65.3 103.884 59 110.184C52.7 116.251 44.65 119.284 34.85 119.284C25.05 119.284 16.8833 116.134 10.35 109.834C4.05 103.534 0.900001 95.4839 0.900001 85.6839C0.900001 81.0172 1.48333 76.3505 2.65 71.6839C3.81667 67.0172 6.38333 60.0172 10.35 50.6839L30.65 0.283872H65.3L49.9 55.9339ZM132.5 55.9339C138.333 58.5005 142.883 62.3505 146.15 67.4839C149.417 72.6172 151.05 78.6839 151.05 85.6839C151.05 95.7172 147.9 103.884 141.6 110.184C135.3 116.251 127.25 119.284 117.45 119.284C107.65 119.284 99.4833 116.134 92.95 109.834C86.65 103.534 83.5 95.4839 83.5 85.6839C83.5 81.0172 84.0833 76.3505 85.25 71.6839C86.4167 67.0172 88.9833 60.0172 92.95 50.6839L113.25 0.283872H147.9L132.5 55.9339Z" fill="#FFC102"/>
</svg>
