<svg width="33" height="33" viewBox="0 0 33 33" fill="none" xmlns="http://www.w3.org/2000/svg">
<path d="M33.0002 16.601C33.0002 7.43118 25.6123 -0.0020752 16.5002 -0.0020752C7.38397 -1.26953e-05 -0.00390625 7.43118 -0.00390625 16.6031C-0.00390625 24.8882 6.03097 31.7563 13.918 33.002V21.4005H9.73109V16.6031H13.9221V12.9422C13.9221 8.78211 16.3868 6.48449 20.155 6.48449C21.9617 6.48449 23.8489 6.8083 23.8489 6.8083V10.892H21.7678C19.7198 10.892 19.0804 12.1729 19.0804 13.4867V16.601H23.655L22.9249 21.3984H19.0783V33C26.9653 31.7542 33.0002 24.8861 33.0002 16.601Z" fill="#022AFD"/>
</svg>
