<svg width="36" height="37" viewBox="0 0 36 37" fill="none" xmlns="http://www.w3.org/2000/svg">
<path d="M30.3612 5.77559C27.0214 2.4123 22.5736 0.5625 17.8469 0.5625C8.09047 0.5625 0.151447 8.53828 0.151447 18.3398C0.151447 21.4709 0.96448 24.5299 2.51084 27.2285L0 36.4375L9.38176 33.9631C11.9643 35.3805 14.8737 36.1252 17.8389 36.1252H17.8469C27.5953 36.1252 35.7097 28.1494 35.7097 18.3479C35.7097 13.5992 33.701 9.13887 30.3612 5.77559ZM17.8469 33.1303C15.2005 33.1303 12.61 32.4176 10.3542 31.0723L9.82016 30.752L4.25647 32.2174L5.73906 26.7641L5.38834 26.2035C3.91372 23.8492 3.14054 21.1346 3.14054 18.3398C3.14054 10.1959 9.74045 3.56543 17.8548 3.56543C21.7845 3.56543 25.475 5.10293 28.2489 7.89766C31.0228 10.6924 32.7286 14.4 32.7206 18.3479C32.7206 26.4998 25.9533 33.1303 17.8469 33.1303ZM25.9134 22.0635C25.475 21.8393 23.299 20.7662 22.8925 20.6221C22.4859 20.4699 22.191 20.3979 21.8961 20.8463C21.6012 21.2947 20.7563 22.2877 20.4932 22.592C20.2381 22.8883 19.9751 22.9283 19.5367 22.7041C16.9382 21.3988 15.2324 20.3738 13.5187 17.4189C13.0643 16.6342 13.973 16.6902 14.8179 14.9926C14.9614 14.6963 14.8897 14.44 14.7781 14.2158C14.6665 13.9916 13.7817 11.8055 13.415 10.9166C13.0564 10.0518 12.6897 10.1719 12.4187 10.1559C12.1636 10.1398 11.8687 10.1398 11.5738 10.1398C11.2788 10.1398 10.8006 10.252 10.3941 10.6924C9.98755 11.1408 8.84771 12.2139 8.84771 14.4C8.84771 16.5861 10.4339 18.7002 10.6491 18.9965C10.8723 19.2928 13.7658 23.7771 18.2056 25.707C21.0113 26.9242 22.1113 27.0283 23.5142 26.8201C24.3671 26.692 26.1286 25.7471 26.4953 24.7061C26.862 23.665 26.862 22.7762 26.7504 22.592C26.6468 22.3918 26.3518 22.2797 25.9134 22.0635Z" fill="#022AFD"/>
</svg>
