<svg width="70" height="45" viewBox="0 0 70 45" fill="none" xmlns="http://www.w3.org/2000/svg">
<path d="M6.57794 25.7404L6.19644 24.9835L68.3801 1L68.9046 3.79098L69 5.30473V6.58196V11.9274L68.7616 13.9615L68.4754 15.8064L67.9986 17.7459L67.474 19.4015L66.9495 20.9626L66.3295 22.6656L65.4712 24.2266L64.6128 25.7877L63.6114 27.396L62.4669 28.9098L61.5132 30.187L60.0826 31.8427L58.8427 33.1199L57.5075 34.3025L56.0292 35.5798L54.7416 36.5259L53.311 37.5193L51.7374 38.418L50.4021 39.2222L48.7808 40.0264L46.9687 40.8306L44.5843 41.6821L42.963 42.2497L40.9601 42.8174L38.9096 43.1958L37.1452 43.4796L34.5701 43.7635L32.5196 43.9054L29.5153 44H26.5587H23.5544H20.5025L17.4982 43.9054L13.874 43.7635L11.7758 43.6689L9.20071 43.527L7.24555 43.4323L5.14733 43.2904L2 43.0066L3.14448 42.1551L4.43203 41.1144L5.52883 39.9318L6.53025 38.3234L7.24555 36.9516L7.67473 35.6271L8.1516 33.8768L8.24698 31.6535L8.05623 30.0451L7.91317 28.9098L7.57936 28.011L7.0548 26.7338L6.57794 25.7404Z" stroke="#FFC102"/>
</svg>
